<svg xmlns:xlink="http://www.w3.org/1999/xlink" width="24" height="24" fill="none" viewBox="0 0 24 24" xmlns="http://www.w3.org/2000/svg" class="rotate-image-popUpIcon-0-2-102"><path d="M7.992 1.758a.73.73 0 0 1 .211-.54.782.782 0 0 1 .54-.21h6.515c.203 0 .375.07.515.21.157.141.235.321.235.54a.74.74 0 0 1-.235.539.701.701 0 0 1-.515.21H8.742a.782.782 0 0 1-.539-.21.782.782 0 0 1-.21-.54zM10.242 9a.741.741 0 0 0-.539.234.701.701 0 0 0-.21.516v6.492c0 .219.07.399.21.54.156.14.336.21.54.21a.73.73 0 0 0 .538-.21.73.73 0 0 0 .211-.54V9.75a.701.701 0 0 0-.21-.516.693.693 0 0 0-.54-.234zm2.766.75c0-.203.07-.375.21-.516a.693.693 0 0 1 .54-.234c.203 0 .375.078.515.234.157.141.235.313.235.516v6.492a.693.693 0 0 1-.235.54.701.701 0 0 1-.515.21.73.73 0 0 1-.54-.21.73.73 0 0 1-.21-.54V9.75zM3.75 4.008h16.5c.203 0 .375.07.516.21.156.141.234.321.234.54a.74.74 0 0 1-.234.539.701.701 0 0 1-.516.21h-1.242V18c0 1.11-.39 2.055-1.172 2.836-.781.781-1.727 1.172-2.836 1.172H9c-1.11 0-2.055-.39-2.836-1.172-.781-.781-1.172-1.727-1.172-2.836V5.508H3.75a.782.782 0 0 1-.54-.211.782.782 0 0 1-.21-.54.73.73 0 0 1 .21-.538.782.782 0 0 1 .54-.211zM15 20.508c.688 0 1.273-.242 1.758-.727.5-.5.75-1.093.75-1.781V5.508H6.492V18c0 .688.242 1.281.727 1.781.5.485 1.093.727 1.781.727h6z" fill="#5F5F5F"></path></svg>