<svg xmlns:xlink="http://www.w3.org/1999/xlink" width="24" height="22" fill="none" xmlns="http://www.w3.org/2000/svg"><path d="m1.92 8.743.817.782a10.062 10.062 0 0 1 1.137-3.518 10.77 10.77 0 0 1 2.31-2.843A9.931 9.931 0 0 1 9.31 1.281c1.184-.45 2.44-.676 3.767-.676 1.421 0 2.772.273 4.051.818a10.391 10.391 0 0 1 3.305 2.168 10.167 10.167 0 0 1 2.239 3.269c.545 1.232.817 2.559.817 3.98 0 1.422-.272 2.748-.817 3.98a10.168 10.168 0 0 1-2.239 3.27 10.39 10.39 0 0 1-3.305 2.168c-1.28.544-2.63.817-4.051.817-.332 0-.604-.107-.817-.32a1.186 1.186 0 0 1-.32-.817c0-.308.106-.569.32-.782a1.05 1.05 0 0 1 .817-.356 7.945 7.945 0 0 0 3.163-.64 8.007 8.007 0 0 0 2.594-1.67 8.303 8.303 0 0 0 1.741-2.558c.427-.972.64-2.002.64-3.092 0-1.09-.213-2.12-.64-3.092a7.877 7.877 0 0 0-1.741-2.523A7.724 7.724 0 0 0 16.24 3.52a7.945 7.945 0 0 0-3.163-.64c-.995 0-1.943.166-2.843.497a8.729 8.729 0 0 0-2.381 1.35 7.653 7.653 0 0 0-1.777 2.026 8.02 8.02 0 0 0-.995 2.524l.569-.534a.952.952 0 0 1 .817-.32c.308 0 .569.107.782.32.213.214.32.486.32.818 0 .308-.119.568-.356.782l-2.63 2.594c-.236.237-.509.355-.817.355-.308 0-.568-.118-.782-.355L.32 10.343A1.063 1.063 0 0 1 0 9.56c0-.332.107-.604.32-.818.213-.213.486-.32.817-.32a.91.91 0 0 1 .782.32Z" fill="#4C4C4C"></path></svg>