<svg xmlns:xlink="http://www.w3.org/1999/xlink" width="25" height="24" viewBox="0 0 25 24" fill="none" xmlns="http://www.w3.org/2000/svg">
<g clip-path="url(#clip0_465_125)" fill="none">
<path d="M12.5 4.00781C12.7031 4.00781 12.875 4.07812 13.0156 4.21875C13.1719 4.35938 13.25 4.53906 13.25 4.75781V11.25H19.7422C19.9609 11.25 20.1406 11.3281 20.2812 11.4844C20.4219 11.625 20.4922 11.7969 20.4922 12C20.4922 12.2031 20.4219 12.3828 20.2812 12.5391C20.1406 12.6797 19.9609 12.75 19.7422 12.75H13.25V19.2422C13.25 19.4609 13.1719 19.6406 13.0156 19.7812C12.875 19.9219 12.7031 19.9922 12.5 19.9922C12.2969 19.9922 12.1172 19.9219 11.9609 19.7812C11.8203 19.6406 11.75 19.4609 11.75 19.2422V12.75H5.25781C5.03906 12.75 4.85938 12.6797 4.71875 12.5391C4.57812 12.3828 4.50781 12.2031 4.50781 12C4.50781 11.7969 4.57812 11.625 4.71875 11.4844C4.85938 11.3281 5.03906 11.25 5.25781 11.25H11.75V4.75781C11.75 4.53906 11.8203 4.35938 11.9609 4.21875C12.1172 4.07812 12.2969 4.00781 12.5 4.00781Z" fill="#FFFFFF"></path>
</g>
<defs>
<clipPath id="clip0_465_125">
<rect width="24" height="24" fill="white" transform="translate(0.5)"></rect>
</clipPath>
</defs>
</svg>