<svg xmlns:xlink="http://www.w3.org/1999/xlink" width="24" height="24" fill="none" viewBox="0 0 24 24" xmlns="http://www.w3.org/2000/svg" class="rotate-image-popUpIcon-0-2-102"><path d="M19.992 3.258a.73.73 0 0 1 .54.21c.14.141.21.321.21.54V9.75H19.5 15a.782.782 0 0 1-.54-.21.782.782 0 0 1-.21-.54c0-.203.07-.375.21-.516A.741.741 0 0 1 15 8.25h3.258a8.67 8.67 0 0 0-.938-1.195 6.585 6.585 0 0 0-1.383-1.125 7.33 7.33 0 0 0-1.757-.844c-.657-.219-1.383-.328-2.18-.328-1 0-1.883.164-2.648.492-.782.328-1.454.727-2.016 1.195a7.265 7.265 0 0 0-1.383 1.5c-.36.516-.61.961-.75 1.336a.795.795 0 0 1-.422.422.704.704 0 0 1-.562 0 .807.807 0 0 1-.422-.398.761.761 0 0 1 0-.586c.187-.453.492-.992.914-1.617.422-.625.969-1.22 1.64-1.782.688-.578 1.5-1.07 2.438-1.476.938-.39 2.008-.586 3.211-.586.89 0 1.71.11 2.46.328.75.234 1.423.531 2.017.89.609.36 1.14.766 1.593 1.22.47.452.86.906 1.172 1.359V4.008a.73.73 0 0 1 .211-.54.782.782 0 0 1 .54-.21zM4.477 14.25h-1.22v5.742c0 .219.071.399.212.54.14.14.32.21.539.21.203 0 .375-.07.515-.21a.693.693 0 0 0 .235-.54v-3.047c.312.453.703.907 1.172 1.36.453.453.976.86 1.57 1.218.61.36 1.29.657 2.04.891.75.219 1.57.328 2.46.328 1.203 0 2.273-.195 3.21-.586.938-.406 1.743-.89 2.415-1.453.688-.578 1.242-1.18 1.664-1.805.422-.625.727-1.164.914-1.617a.647.647 0 0 0-.023-.562.702.702 0 0 0-.984-.399.713.713 0 0 0-.4.399c-.14.375-.39.82-.75 1.336a7.268 7.268 0 0 1-1.382 1.5c-.562.468-1.234.867-2.016 1.195-.765.328-1.648.492-2.648.492-.797 0-1.523-.11-2.18-.328a8.48 8.48 0 0 1-1.78-.82 7.546 7.546 0 0 1-1.36-1.149 8.67 8.67 0 0 1-.938-1.195H9c.203 0 .375-.07.516-.21A.741.741 0 0 0 9.75 15a.667.667 0 0 0-.234-.516A.667.667 0 0 0 9 14.25H4.5h-.023z" fill="#5F5F5F"></path></svg>