<svg xmlns:xlink="http://www.w3.org/1999/xlink" width="24" height="22" fill="none" xmlns="http://www.w3.org/2000/svg"><path d="m21.571 8.743-.817.782a10.062 10.062 0 0 0-1.138-3.518 10.772 10.772 0 0 0-2.31-2.843 9.931 9.931 0 0 0-3.127-1.883 10.514 10.514 0 0 0-3.767-.676c-1.421 0-2.772.273-4.05.818A10.392 10.392 0 0 0 3.055 3.59 10.167 10.167 0 0 0 .817 6.86C.272 8.092 0 9.419 0 10.84c0 1.422.272 2.748.817 3.98a10.168 10.168 0 0 0 2.24 3.27 10.39 10.39 0 0 0 3.304 2.168c1.28.544 2.63.817 4.051.817.332 0 .604-.107.818-.32.213-.237.32-.51.32-.817 0-.308-.107-.569-.32-.782a1.05 1.05 0 0 0-.818-.356 7.945 7.945 0 0 1-3.162-.64 8.006 8.006 0 0 1-2.595-1.67 8.303 8.303 0 0 1-1.741-2.558 7.607 7.607 0 0 1-.64-3.092c0-1.09.214-2.12.64-3.092a7.877 7.877 0 0 1 1.741-2.523A7.723 7.723 0 0 1 7.25 3.52a7.944 7.944 0 0 1 3.162-.64c.995 0 1.943.166 2.843.497.877.332 1.67.782 2.381 1.35a7.655 7.655 0 0 1 1.777 2.026 8.02 8.02 0 0 1 .995 2.524l-.568-.534a.952.952 0 0 0-.818-.32c-.308 0-.568.107-.782.32-.213.214-.32.486-.32.818 0 .308.12.568.356.782l2.63 2.594c.237.237.51.355.817.355.308 0 .569-.118.782-.355l2.665-2.594c.213-.214.32-.474.32-.782 0-.332-.107-.604-.32-.818-.213-.213-.486-.32-.817-.32a.91.91 0 0 0-.782.32Z" fill="#4C4C4C"></path></svg>