<svg xmlns:xlink="http://www.w3.org/1999/xlink" width="56" height="79" fill="none" xmlns="http://www.w3.org/2000/svg"><path d="M.067 9.624A8.745 8.745 0 0 1 8.813.878h31.236l7.166 7.544 7.92 7.544v53.866a8.745 8.745 0 0 1-8.745 8.746H8.813a8.745 8.745 0 0 1-8.746-8.746V9.624Z" fill="#CCCCCC"></path><path d="M40.047.878 47.591 8.8l7.544 7.167h-6.342a8.745 8.745 0 0 1-8.746-8.746V.878Z" fill="#888888"></path><path d="M19.156 52.522h16.88c2.252 0 3.467-1.205 3.467-3.446V36.963c0-2.24-1.215-3.456-3.467-3.456h-16.88c-2.251 0-3.477 1.215-3.477 3.456v12.113c0 2.241 1.226 3.446 3.477 3.446Zm-1.035-15.284c0-.877.444-1.29 1.279-1.29h16.393c.825 0 1.28.413 1.28 1.29v9.925l-4.525-4.228c-.444-.402-.962-.602-1.49-.602-.55 0-1.036.19-1.49.592l-4.514 4.027-1.839-1.66c-.423-.37-.877-.56-1.353-.56-.475 0-.866.18-1.279.55l-2.462 2.188V37.237Zm5.707 6.078a2.46 2.46 0 0 0 2.453-2.453 2.468 2.468 0 0 0-2.453-2.452 2.468 2.468 0 0 0-2.452 2.452 2.46 2.46 0 0 0 2.452 2.453Z" fill="#FFFFFF"></path></svg>